<svg width="53" height="53" viewBox="0 0 53 53" fill="none" xmlns="http://www.w3.org/2000/svg">
<circle cx="26.5" cy="26.5" r="26.5" fill="#18333E"/>
<path d="M35.3 21.58H29.72C29.33 21.58 29.02 21.27 29.02 20.88C29.02 20.49 29.33 20.18 29.72 20.18H35.3C35.69 20.18 36 20.49 36 20.88C36 21.27 35.69 21.58 35.3 21.58Z" fill="white"/>
<path d="M20.42 21.58H16.7C16.31 21.58 16 21.27 16 20.88C16 20.49 16.31 20.18 16.7 20.18H20.42C20.81 20.18 21.12 20.49 21.12 20.88C21.12 21.27 20.8 21.58 20.42 21.58Z" fill="white"/>
<path d="M24.1399 24.83C26.3215 24.83 28.0899 23.0615 28.0899 20.88C28.0899 18.6985 26.3215 16.93 24.1399 16.93C21.9584 16.93 20.1899 18.6985 20.1899 20.88C20.1899 23.0615 21.9584 24.83 24.1399 24.83Z" fill="white"/>
<path d="M35.2999 31.81H31.5799C31.1899 31.81 30.8799 31.5 30.8799 31.11C30.8799 30.72 31.1899 30.41 31.5799 30.41H35.2999C35.6899 30.41 35.9999 30.72 35.9999 31.11C35.9999 31.5 35.6899 31.81 35.2999 31.81Z" fill="white"/>
<path d="M22.28 31.81H16.7C16.31 31.81 16 31.5 16 31.11C16 30.72 16.31 30.41 16.7 30.41H22.28C22.67 30.41 22.98 30.72 22.98 31.11C22.98 31.5 22.66 31.81 22.28 31.81Z" fill="white"/>
<path d="M27.8602 35.07C30.0417 35.07 31.8102 33.3015 31.8102 31.12C31.8102 28.9385 30.0417 27.17 27.8602 27.17C25.6786 27.17 23.9102 28.9385 23.9102 31.12C23.9102 33.3015 25.6786 35.07 27.8602 35.07Z" fill="white"/>
</svg>
